<mxfile host="app.diagrams.net" agent="Mozilla/5.0 (Windows NT 10.0; Win64; x64) AppleWebKit/537.36 (KHTML, like Gecko) Chrome/114.0.0.0 Safari/537.36" version="24.8.6">
  <diagram name="Page-1" id="wsDfjI5d7TI5WwQlB0uh">
    <mxGraphModel dx="6010" dy="3800" grid="1" gridSize="10" guides="1" tooltips="1" connect="1" arrows="1" fold="1" page="1" pageScale="1" pageWidth="850" pageHeight="1100" math="0" shadow="0">
      <root>
        <mxCell id="0" />
        <mxCell id="1" parent="0" />
        <mxCell id="Fkg0yW7t0FuJe1KcSKEN-32" style="edgeStyle=orthogonalEdgeStyle;rounded=0;orthogonalLoop=1;jettySize=auto;html=1;exitX=1;exitY=0.5;exitDx=0;exitDy=0;entryX=0;entryY=0.5;entryDx=0;entryDy=0;fontSize=20;" edge="1" parent="1" source="zgdioNFowjZYfoI_lG1k-6" target="Fkg0yW7t0FuJe1KcSKEN-12">
          <mxGeometry relative="1" as="geometry" />
        </mxCell>
        <mxCell id="Fkg0yW7t0FuJe1KcSKEN-34" style="edgeStyle=orthogonalEdgeStyle;rounded=0;orthogonalLoop=1;jettySize=auto;html=1;exitX=0;exitY=0.5;exitDx=0;exitDy=0;entryX=1;entryY=0.5;entryDx=0;entryDy=0;fontSize=20;" edge="1" parent="1" source="zgdioNFowjZYfoI_lG1k-6" target="Fkg0yW7t0FuJe1KcSKEN-33">
          <mxGeometry relative="1" as="geometry" />
        </mxCell>
        <mxCell id="zgdioNFowjZYfoI_lG1k-6" value="&lt;font style=&quot;font-size: 20px;&quot; color=&quot;#073042&quot;&gt;app&lt;/font&gt;" style="rounded=1;whiteSpace=wrap;html=1;fillColor=#00E489;strokeColor=none;fontSize=20;" parent="1" vertex="1">
          <mxGeometry x="1131" y="-370" width="200" height="50" as="geometry" />
        </mxCell>
        <mxCell id="zgdioNFowjZYfoI_lG1k-7" value="&lt;font color=&quot;#ffffff&quot; style=&quot;font-size: 20px;&quot;&gt;:feature:login&lt;/font&gt;" style="rounded=1;whiteSpace=wrap;html=1;fillColor=#FF8A65;strokeColor=none;fontSize=20;" parent="1" vertex="1">
          <mxGeometry x="180" y="-140" width="200" height="50" as="geometry" />
        </mxCell>
        <mxCell id="zgdioNFowjZYfoI_lG1k-13" value="&lt;font color=&quot;#ffffff&quot; style=&quot;font-size: 20px;&quot;&gt;:feature:home&lt;/font&gt;" style="rounded=1;whiteSpace=wrap;html=1;fillColor=#FF8A65;strokeColor=none;fontSize=20;" parent="1" vertex="1">
          <mxGeometry x="418" y="-140" width="200" height="50" as="geometry" />
        </mxCell>
        <mxCell id="zgdioNFowjZYfoI_lG1k-14" value="&lt;font color=&quot;#ffffff&quot; style=&quot;font-size: 20px;&quot;&gt;:feature:watchlist&lt;/font&gt;" style="rounded=1;whiteSpace=wrap;html=1;fillColor=#FF8A65;strokeColor=none;fontSize=20;" parent="1" vertex="1">
          <mxGeometry x="2081" y="-140" width="200" height="50" as="geometry" />
        </mxCell>
        <mxCell id="zgdioNFowjZYfoI_lG1k-28" value="&lt;span style=&quot;caret-color: rgb(255, 255, 255); color: rgb(255, 255, 255); font-size: 20px;&quot;&gt;:core:network&lt;/span&gt;" style="rounded=1;whiteSpace=wrap;html=1;fillColor=#1A73E8;strokeColor=none;fontSize=20;" parent="1" vertex="1">
          <mxGeometry x="1960" y="610" width="200" height="50" as="geometry" />
        </mxCell>
        <mxCell id="zgdioNFowjZYfoI_lG1k-33" value="&lt;font color=&quot;#ffffff&quot; style=&quot;font-size: 20px;&quot;&gt;:feature:search&lt;/font&gt;" style="rounded=1;whiteSpace=wrap;html=1;fillColor=#FF8A65;strokeColor=none;fontSize=20;" parent="1" vertex="1">
          <mxGeometry x="1368" y="-140" width="200" height="50" as="geometry" />
        </mxCell>
        <mxCell id="zgdioNFowjZYfoI_lG1k-35" value="&lt;font color=&quot;#ffffff&quot; style=&quot;font-size: 20px;&quot;&gt;:feature:favorite&lt;/font&gt;" style="rounded=1;whiteSpace=wrap;html=1;fillColor=#FF8A65;strokeColor=none;fontSize=20;" parent="1" vertex="1">
          <mxGeometry x="1843" y="-140" width="200" height="50" as="geometry" />
        </mxCell>
        <mxCell id="zgdioNFowjZYfoI_lG1k-37" value="&lt;font color=&quot;#ffffff&quot; style=&quot;font-size: 20px;&quot;&gt;:feature:more&lt;/font&gt;" style="rounded=1;whiteSpace=wrap;html=1;fillColor=#FF8A65;strokeColor=none;fontSize=20;" parent="1" vertex="1">
          <mxGeometry x="1606" y="-140" width="200" height="50" as="geometry" />
        </mxCell>
        <mxCell id="zgdioNFowjZYfoI_lG1k-38" value="&lt;font color=&quot;#ffffff&quot; style=&quot;font-size: 20px;&quot;&gt;:feature:detail&lt;/font&gt;" style="rounded=1;whiteSpace=wrap;html=1;fillColor=#FF8A65;strokeColor=none;fontSize=20;" parent="1" vertex="1">
          <mxGeometry x="655" y="-140" width="200" height="50" as="geometry" />
        </mxCell>
        <mxCell id="zgdioNFowjZYfoI_lG1k-39" value="&lt;font color=&quot;#ffffff&quot; style=&quot;font-size: 20px;&quot;&gt;:feature:person&lt;/font&gt;" style="rounded=1;whiteSpace=wrap;html=1;fillColor=#FF8A65;strokeColor=none;fontSize=20;" parent="1" vertex="1">
          <mxGeometry x="893" y="-140" width="200" height="50" as="geometry" />
        </mxCell>
        <mxCell id="zgdioNFowjZYfoI_lG1k-45" value="" style="endArrow=classic;html=1;rounded=0;exitX=0.5;exitY=1;exitDx=0;exitDy=0;entryX=0.5;entryY=0;entryDx=0;entryDy=0;fontSize=20;" parent="1" source="zgdioNFowjZYfoI_lG1k-6" target="zgdioNFowjZYfoI_lG1k-7" edge="1">
          <mxGeometry width="50" height="50" relative="1" as="geometry">
            <mxPoint x="1079" y="-320" as="sourcePoint" />
            <mxPoint x="1129" y="-370" as="targetPoint" />
          </mxGeometry>
        </mxCell>
        <mxCell id="zgdioNFowjZYfoI_lG1k-46" value="" style="endArrow=classic;html=1;rounded=0;exitX=0.5;exitY=1;exitDx=0;exitDy=0;entryX=0.5;entryY=0;entryDx=0;entryDy=0;fontSize=20;" parent="1" source="zgdioNFowjZYfoI_lG1k-6" target="zgdioNFowjZYfoI_lG1k-13" edge="1">
          <mxGeometry width="50" height="50" relative="1" as="geometry">
            <mxPoint x="1230" y="-530" as="sourcePoint" />
            <mxPoint x="290" y="-130" as="targetPoint" />
          </mxGeometry>
        </mxCell>
        <mxCell id="zgdioNFowjZYfoI_lG1k-47" value="" style="endArrow=classic;html=1;rounded=0;exitX=0.5;exitY=1;exitDx=0;exitDy=0;entryX=0.5;entryY=0;entryDx=0;entryDy=0;fontSize=20;" parent="1" source="zgdioNFowjZYfoI_lG1k-6" target="zgdioNFowjZYfoI_lG1k-33" edge="1">
          <mxGeometry width="50" height="50" relative="1" as="geometry">
            <mxPoint x="1240" y="-520" as="sourcePoint" />
            <mxPoint x="525" y="-130" as="targetPoint" />
          </mxGeometry>
        </mxCell>
        <mxCell id="zgdioNFowjZYfoI_lG1k-49" value="" style="endArrow=classic;html=1;rounded=0;exitX=0.5;exitY=1;exitDx=0;exitDy=0;entryX=0.5;entryY=0;entryDx=0;entryDy=0;fontSize=20;" parent="1" source="zgdioNFowjZYfoI_lG1k-6" target="zgdioNFowjZYfoI_lG1k-35" edge="1">
          <mxGeometry width="50" height="50" relative="1" as="geometry">
            <mxPoint x="1260" y="-500" as="sourcePoint" />
            <mxPoint x="995" y="-130" as="targetPoint" />
          </mxGeometry>
        </mxCell>
        <mxCell id="zgdioNFowjZYfoI_lG1k-50" value="" style="endArrow=classic;html=1;rounded=0;exitX=0.5;exitY=1;exitDx=0;exitDy=0;entryX=0.5;entryY=0;entryDx=0;entryDy=0;fontSize=20;" parent="1" source="zgdioNFowjZYfoI_lG1k-6" target="zgdioNFowjZYfoI_lG1k-14" edge="1">
          <mxGeometry width="50" height="50" relative="1" as="geometry">
            <mxPoint x="1270" y="-490" as="sourcePoint" />
            <mxPoint x="1230" y="-130" as="targetPoint" />
          </mxGeometry>
        </mxCell>
        <mxCell id="zgdioNFowjZYfoI_lG1k-51" value="" style="endArrow=classic;html=1;rounded=0;exitX=0.5;exitY=1;exitDx=0;exitDy=0;entryX=0.5;entryY=0;entryDx=0;entryDy=0;fontSize=20;" parent="1" source="zgdioNFowjZYfoI_lG1k-6" target="zgdioNFowjZYfoI_lG1k-37" edge="1">
          <mxGeometry width="50" height="50" relative="1" as="geometry">
            <mxPoint x="1280" y="-480" as="sourcePoint" />
            <mxPoint x="1464" y="-130" as="targetPoint" />
          </mxGeometry>
        </mxCell>
        <mxCell id="zgdioNFowjZYfoI_lG1k-52" value="" style="endArrow=classic;html=1;rounded=0;exitX=0.5;exitY=1;exitDx=0;exitDy=0;entryX=0.5;entryY=0;entryDx=0;entryDy=0;fontSize=20;" parent="1" source="zgdioNFowjZYfoI_lG1k-6" target="zgdioNFowjZYfoI_lG1k-38" edge="1">
          <mxGeometry width="50" height="50" relative="1" as="geometry">
            <mxPoint x="1290" y="-470" as="sourcePoint" />
            <mxPoint x="1699" y="-130" as="targetPoint" />
          </mxGeometry>
        </mxCell>
        <mxCell id="zgdioNFowjZYfoI_lG1k-53" value="" style="endArrow=classic;html=1;rounded=0;exitX=0.5;exitY=1;exitDx=0;exitDy=0;entryX=0.5;entryY=0;entryDx=0;entryDy=0;fontSize=20;" parent="1" source="zgdioNFowjZYfoI_lG1k-6" target="zgdioNFowjZYfoI_lG1k-39" edge="1">
          <mxGeometry width="50" height="50" relative="1" as="geometry">
            <mxPoint x="1300" y="-460" as="sourcePoint" />
            <mxPoint x="1934" y="-130" as="targetPoint" />
          </mxGeometry>
        </mxCell>
        <mxCell id="Fkg0yW7t0FuJe1KcSKEN-50" style="edgeStyle=orthogonalEdgeStyle;rounded=0;orthogonalLoop=1;jettySize=auto;html=1;exitX=0;exitY=0.5;exitDx=0;exitDy=0;entryX=0.25;entryY=1;entryDx=0;entryDy=0;fontSize=20;" edge="1" parent="1" source="Fkg0yW7t0FuJe1KcSKEN-3" target="Fkg0yW7t0FuJe1KcSKEN-33">
          <mxGeometry relative="1" as="geometry">
            <mxPoint x="-90" y="-176.666695731027" as="targetPoint" />
          </mxGeometry>
        </mxCell>
        <mxCell id="Fkg0yW7t0FuJe1KcSKEN-3" value="&lt;span style=&quot;caret-color: rgb(255, 255, 255); color: rgb(255, 255, 255); font-size: 20px;&quot;&gt;:core:common&lt;/span&gt;" style="rounded=1;whiteSpace=wrap;html=1;fillColor=#1A73E8;strokeColor=none;fontSize=20;" vertex="1" parent="1">
          <mxGeometry x="1060" y="1180" width="200" height="50" as="geometry" />
        </mxCell>
        <mxCell id="Fkg0yW7t0FuJe1KcSKEN-6" value="&lt;span style=&quot;caret-color: rgb(255, 255, 255); color: rgb(255, 255, 255); font-size: 20px;&quot;&gt;:core:data&lt;/span&gt;" style="rounded=1;whiteSpace=wrap;html=1;fillColor=#1A73E8;strokeColor=none;arcSize=17;fontSize=20;" vertex="1" parent="1">
          <mxGeometry x="1220" y="930" width="200" height="50" as="geometry" />
        </mxCell>
        <mxCell id="Fkg0yW7t0FuJe1KcSKEN-12" value="&lt;font style=&quot;font-size: 20px;&quot; color=&quot;#073042&quot;&gt;:navigation&lt;/font&gt;" style="rounded=1;whiteSpace=wrap;html=1;fillColor=none;strokeColor=#FF8A65;fontSize=20;strokeWidth=2;" vertex="1" parent="1">
          <mxGeometry x="2420" y="-370" width="200" height="50" as="geometry" />
        </mxCell>
        <mxCell id="Fkg0yW7t0FuJe1KcSKEN-28" value="&lt;span style=&quot;caret-color: rgb(255, 255, 255); color: rgb(255, 255, 255); font-size: 20px;&quot;&gt;:core:user&lt;/span&gt;" style="rounded=1;whiteSpace=wrap;html=1;fillColor=#1A73E8;strokeColor=none;fontSize=20;" vertex="1" parent="1">
          <mxGeometry x="1606" y="420" width="200" height="50" as="geometry" />
        </mxCell>
        <mxCell id="Fkg0yW7t0FuJe1KcSKEN-29" value="&lt;span style=&quot;caret-color: rgb(255, 255, 255); color: rgb(255, 255, 255); font-size: 20px;&quot;&gt;:core:movie&lt;/span&gt;" style="rounded=1;whiteSpace=wrap;html=1;fillColor=#1A73E8;strokeColor=none;fontSize=20;" vertex="1" parent="1">
          <mxGeometry x="750" y="430" width="200" height="50" as="geometry" />
        </mxCell>
        <mxCell id="Fkg0yW7t0FuJe1KcSKEN-30" value="&lt;font color=&quot;#ffffff&quot; style=&quot;font-size: 20px;&quot;&gt;:feature:about&lt;/font&gt;" style="rounded=1;whiteSpace=wrap;html=1;fillColor=#FF8A65;strokeColor=none;fontSize=20;" vertex="1" parent="1">
          <mxGeometry x="1131" y="-140" width="200" height="50" as="geometry" />
        </mxCell>
        <mxCell id="Fkg0yW7t0FuJe1KcSKEN-31" value="" style="endArrow=classic;html=1;rounded=0;exitX=0.5;exitY=1;exitDx=0;exitDy=0;entryX=0.5;entryY=0;entryDx=0;entryDy=0;fontSize=20;" edge="1" parent="1" source="zgdioNFowjZYfoI_lG1k-6" target="Fkg0yW7t0FuJe1KcSKEN-30">
          <mxGeometry width="50" height="50" relative="1" as="geometry">
            <mxPoint x="1229" y="-290" as="sourcePoint" />
            <mxPoint x="1919" y="-130" as="targetPoint" />
          </mxGeometry>
        </mxCell>
        <mxCell id="Fkg0yW7t0FuJe1KcSKEN-33" value="&lt;font style=&quot;font-size: 20px;&quot; color=&quot;#073042&quot;&gt;:core:designsystem&lt;/font&gt;" style="rounded=1;whiteSpace=wrap;html=1;fillColor=#d5e8d4;strokeColor=#82b366;fontSize=20;strokeWidth=2;" vertex="1" parent="1">
          <mxGeometry x="-39" y="-370" width="200" height="50" as="geometry" />
        </mxCell>
        <mxCell id="Fkg0yW7t0FuJe1KcSKEN-43" style="edgeStyle=orthogonalEdgeStyle;rounded=0;orthogonalLoop=1;jettySize=auto;html=1;exitX=0;exitY=0.5;exitDx=0;exitDy=0;entryX=0.75;entryY=1;entryDx=0;entryDy=0;fontSize=20;" edge="1" parent="1" source="Fkg0yW7t0FuJe1KcSKEN-35" target="Fkg0yW7t0FuJe1KcSKEN-33">
          <mxGeometry relative="1" as="geometry">
            <mxPoint x="120" y="-260" as="targetPoint" />
          </mxGeometry>
        </mxCell>
        <mxCell id="Fkg0yW7t0FuJe1KcSKEN-35" value="&lt;font color=&quot;#ffffff&quot; style=&quot;font-size: 20px;&quot;&gt;:core:favoritewatchlist&lt;/font&gt;" style="rounded=1;whiteSpace=wrap;html=1;fillColor=#61BAFF;strokeColor=#006EAF;fontSize=20;fontColor=#ffffff;" vertex="1" parent="1">
          <mxGeometry x="1960" y="10" width="200" height="50" as="geometry" />
        </mxCell>
        <mxCell id="Fkg0yW7t0FuJe1KcSKEN-36" value="" style="endArrow=classic;html=1;rounded=0;exitX=0.5;exitY=1;exitDx=0;exitDy=0;entryX=0.5;entryY=0;entryDx=0;entryDy=0;fontSize=20;" edge="1" parent="1" source="zgdioNFowjZYfoI_lG1k-14" target="Fkg0yW7t0FuJe1KcSKEN-35">
          <mxGeometry width="50" height="50" relative="1" as="geometry">
            <mxPoint x="1214" y="-310" as="sourcePoint" />
            <mxPoint x="980" y="-130" as="targetPoint" />
          </mxGeometry>
        </mxCell>
        <mxCell id="Fkg0yW7t0FuJe1KcSKEN-37" value="" style="endArrow=classic;html=1;rounded=0;exitX=0.5;exitY=1;exitDx=0;exitDy=0;entryX=0.5;entryY=0;entryDx=0;entryDy=0;fontSize=20;" edge="1" parent="1" source="zgdioNFowjZYfoI_lG1k-35" target="Fkg0yW7t0FuJe1KcSKEN-35">
          <mxGeometry width="50" height="50" relative="1" as="geometry">
            <mxPoint x="1214" y="-80" as="sourcePoint" />
            <mxPoint x="1090" y="20" as="targetPoint" />
          </mxGeometry>
        </mxCell>
        <mxCell id="Fkg0yW7t0FuJe1KcSKEN-61" style="edgeStyle=orthogonalEdgeStyle;rounded=0;orthogonalLoop=1;jettySize=auto;html=1;exitX=0;exitY=0.5;exitDx=0;exitDy=0;entryX=0.5;entryY=1;entryDx=0;entryDy=0;fontSize=20;" edge="1" parent="1" source="Fkg0yW7t0FuJe1KcSKEN-41" target="Fkg0yW7t0FuJe1KcSKEN-33">
          <mxGeometry relative="1" as="geometry" />
        </mxCell>
        <mxCell id="Fkg0yW7t0FuJe1KcSKEN-41" value="&lt;span style=&quot;caret-color: rgb(255, 255, 255); color: rgb(255, 255, 255); font-size: 20px;&quot;&gt;:core:uihelper&lt;/span&gt;" style="rounded=1;whiteSpace=wrap;html=1;fillColor=#1A73E8;strokeColor=none;fontSize=20;" vertex="1" parent="1">
          <mxGeometry x="180" y="290" width="200" height="50" as="geometry" />
        </mxCell>
        <mxCell id="Fkg0yW7t0FuJe1KcSKEN-44" value="" style="endArrow=classic;html=1;rounded=0;exitX=0.5;exitY=1;exitDx=0;exitDy=0;entryX=0.5;entryY=0;entryDx=0;entryDy=0;fontSize=20;" edge="1" parent="1" source="Fkg0yW7t0FuJe1KcSKEN-35" target="Fkg0yW7t0FuJe1KcSKEN-41">
          <mxGeometry width="50" height="50" relative="1" as="geometry">
            <mxPoint x="1002.5" y="250" as="sourcePoint" />
            <mxPoint x="1112.5" y="350" as="targetPoint" />
          </mxGeometry>
        </mxCell>
        <mxCell id="Fkg0yW7t0FuJe1KcSKEN-46" value="" style="endArrow=classic;html=1;rounded=0;exitX=0.5;exitY=1;exitDx=0;exitDy=0;entryX=0.5;entryY=0;entryDx=0;entryDy=0;fontSize=20;" edge="1" parent="1" source="Fkg0yW7t0FuJe1KcSKEN-35" target="Fkg0yW7t0FuJe1KcSKEN-38">
          <mxGeometry width="50" height="50" relative="1" as="geometry">
            <mxPoint x="1122.5" y="410" as="sourcePoint" />
            <mxPoint x="806.5" y="700" as="targetPoint" />
          </mxGeometry>
        </mxCell>
        <mxCell id="Fkg0yW7t0FuJe1KcSKEN-48" value="" style="endArrow=classic;html=1;rounded=0;exitX=0.5;exitY=1;exitDx=0;exitDy=0;entryX=0.5;entryY=0;entryDx=0;entryDy=0;fontSize=20;" edge="1" parent="1" source="Fkg0yW7t0FuJe1KcSKEN-35" target="zgdioNFowjZYfoI_lG1k-28">
          <mxGeometry width="50" height="50" relative="1" as="geometry">
            <mxPoint x="1142.5" y="430" as="sourcePoint" />
            <mxPoint x="1419.5" y="700" as="targetPoint" />
          </mxGeometry>
        </mxCell>
        <mxCell id="Fkg0yW7t0FuJe1KcSKEN-53" value="" style="endArrow=classic;html=1;rounded=0;exitX=0.5;exitY=1;exitDx=0;exitDy=0;entryX=0.5;entryY=0;entryDx=0;entryDy=0;fontSize=20;" edge="1" parent="1" source="Fkg0yW7t0FuJe1KcSKEN-38" target="Fkg0yW7t0FuJe1KcSKEN-6">
          <mxGeometry width="50" height="50" relative="1" as="geometry">
            <mxPoint x="1030" y="730" as="sourcePoint" />
            <mxPoint x="1409" y="1110" as="targetPoint" />
          </mxGeometry>
        </mxCell>
        <mxCell id="Fkg0yW7t0FuJe1KcSKEN-81" value="&lt;font style=&quot;font-size: 20px;&quot;&gt;api&lt;/font&gt;" style="edgeLabel;html=1;align=center;verticalAlign=middle;resizable=0;points=[];fontSize=20;" vertex="1" connectable="0" parent="Fkg0yW7t0FuJe1KcSKEN-53">
          <mxGeometry x="-0.0649" y="1" relative="1" as="geometry">
            <mxPoint as="offset" />
          </mxGeometry>
        </mxCell>
        <mxCell id="Fkg0yW7t0FuJe1KcSKEN-57" value="" style="endArrow=classic;html=1;rounded=0;entryX=0.5;entryY=0;entryDx=0;entryDy=0;exitX=0.5;exitY=1;exitDx=0;exitDy=0;fontSize=20;" edge="1" parent="1" source="Fkg0yW7t0FuJe1KcSKEN-29" target="zgdioNFowjZYfoI_lG1k-28">
          <mxGeometry width="50" height="50" relative="1" as="geometry">
            <mxPoint x="662.5" y="550" as="sourcePoint" />
            <mxPoint x="1419.5" y="700" as="targetPoint" />
          </mxGeometry>
        </mxCell>
        <mxCell id="Fkg0yW7t0FuJe1KcSKEN-83" value="&lt;font style=&quot;font-size: 20px;&quot;&gt;api&lt;/font&gt;" style="edgeLabel;html=1;align=center;verticalAlign=middle;resizable=0;points=[];fontSize=20;" vertex="1" connectable="0" parent="Fkg0yW7t0FuJe1KcSKEN-57">
          <mxGeometry x="-0.1277" y="5" relative="1" as="geometry">
            <mxPoint as="offset" />
          </mxGeometry>
        </mxCell>
        <mxCell id="Fkg0yW7t0FuJe1KcSKEN-58" value="" style="endArrow=classic;html=1;rounded=0;entryX=0.5;entryY=0;entryDx=0;entryDy=0;exitX=0.5;exitY=1;exitDx=0;exitDy=0;fontSize=20;" edge="1" parent="1" source="Fkg0yW7t0FuJe1KcSKEN-29" target="Fkg0yW7t0FuJe1KcSKEN-38">
          <mxGeometry width="50" height="50" relative="1" as="geometry">
            <mxPoint x="672.5" y="560" as="sourcePoint" />
            <mxPoint x="1725.5" y="700" as="targetPoint" />
          </mxGeometry>
        </mxCell>
        <mxCell id="Fkg0yW7t0FuJe1KcSKEN-82" value="&lt;font style=&quot;font-size: 20px;&quot;&gt;api&lt;/font&gt;" style="edgeLabel;html=1;align=center;verticalAlign=middle;resizable=0;points=[];fontSize=20;" vertex="1" connectable="0" parent="Fkg0yW7t0FuJe1KcSKEN-58">
          <mxGeometry x="-0.1259" relative="1" as="geometry">
            <mxPoint as="offset" />
          </mxGeometry>
        </mxCell>
        <mxCell id="Fkg0yW7t0FuJe1KcSKEN-60" value="" style="endArrow=classic;html=1;rounded=0;exitX=0.5;exitY=1;exitDx=0;exitDy=0;entryX=0.5;entryY=0;entryDx=0;entryDy=0;fontSize=20;" edge="1" parent="1" source="Fkg0yW7t0FuJe1KcSKEN-41" target="Fkg0yW7t0FuJe1KcSKEN-3">
          <mxGeometry width="50" height="50" relative="1" as="geometry">
            <mxPoint x="652.5" y="540" as="sourcePoint" />
            <mxPoint x="672.5" y="830" as="targetPoint" />
          </mxGeometry>
        </mxCell>
        <mxCell id="Fkg0yW7t0FuJe1KcSKEN-86" value="&lt;font style=&quot;font-size: 20px;&quot;&gt;api&lt;/font&gt;" style="edgeLabel;html=1;align=center;verticalAlign=middle;resizable=0;points=[];fontSize=20;" vertex="1" connectable="0" parent="Fkg0yW7t0FuJe1KcSKEN-60">
          <mxGeometry x="-0.1044" y="1" relative="1" as="geometry">
            <mxPoint x="-1" as="offset" />
          </mxGeometry>
        </mxCell>
        <mxCell id="Fkg0yW7t0FuJe1KcSKEN-64" value="" style="endArrow=classic;html=1;rounded=0;entryX=0.5;entryY=0;entryDx=0;entryDy=0;exitX=0.5;exitY=1;exitDx=0;exitDy=0;fontSize=20;" edge="1" parent="1" source="Fkg0yW7t0FuJe1KcSKEN-28" target="Fkg0yW7t0FuJe1KcSKEN-6">
          <mxGeometry width="50" height="50" relative="1" as="geometry">
            <mxPoint x="1072.5" y="1120" as="sourcePoint" />
            <mxPoint x="802.5" y="990" as="targetPoint" />
          </mxGeometry>
        </mxCell>
        <mxCell id="Fkg0yW7t0FuJe1KcSKEN-92" value="&lt;font style=&quot;font-size: 20px;&quot;&gt;api&lt;/font&gt;" style="edgeLabel;html=1;align=center;verticalAlign=middle;resizable=0;points=[];fontSize=20;" vertex="1" connectable="0" parent="Fkg0yW7t0FuJe1KcSKEN-64">
          <mxGeometry x="-0.1761" y="4" relative="1" as="geometry">
            <mxPoint y="1" as="offset" />
          </mxGeometry>
        </mxCell>
        <mxCell id="Fkg0yW7t0FuJe1KcSKEN-65" value="" style="endArrow=classic;html=1;rounded=0;entryX=0.5;entryY=0;entryDx=0;entryDy=0;exitX=0.5;exitY=1;exitDx=0;exitDy=0;fontSize=20;" edge="1" parent="1" source="Fkg0yW7t0FuJe1KcSKEN-28" target="zgdioNFowjZYfoI_lG1k-28">
          <mxGeometry width="50" height="50" relative="1" as="geometry">
            <mxPoint x="1192.5" y="1120" as="sourcePoint" />
            <mxPoint x="1319.5" y="750" as="targetPoint" />
          </mxGeometry>
        </mxCell>
        <mxCell id="Fkg0yW7t0FuJe1KcSKEN-93" value="&lt;font style=&quot;font-size: 20px;&quot;&gt;api&lt;/font&gt;" style="edgeLabel;html=1;align=center;verticalAlign=middle;resizable=0;points=[];fontSize=20;" vertex="1" connectable="0" parent="Fkg0yW7t0FuJe1KcSKEN-65">
          <mxGeometry x="-0.1332" y="-4" relative="1" as="geometry">
            <mxPoint x="-1" y="-1" as="offset" />
          </mxGeometry>
        </mxCell>
        <mxCell id="Fkg0yW7t0FuJe1KcSKEN-69" value="" style="endArrow=classic;html=1;rounded=0;exitX=0.5;exitY=1;exitDx=0;exitDy=0;entryX=0.5;entryY=0;entryDx=0;entryDy=0;fontSize=20;" edge="1" parent="1" source="Fkg0yW7t0FuJe1KcSKEN-35" target="Fkg0yW7t0FuJe1KcSKEN-38">
          <mxGeometry width="50" height="50" relative="1" as="geometry">
            <mxPoint x="1090" y="90" as="sourcePoint" />
            <mxPoint x="793" y="930" as="targetPoint" />
          </mxGeometry>
        </mxCell>
        <mxCell id="Fkg0yW7t0FuJe1KcSKEN-38" value="&lt;span style=&quot;caret-color: rgb(255, 255, 255); color: rgb(255, 255, 255); font-size: 20px;&quot;&gt;:core:database&lt;/span&gt;" style="rounded=1;whiteSpace=wrap;html=1;fillColor=#1A73E8;strokeColor=none;fontSize=20;" vertex="1" parent="1">
          <mxGeometry x="990" y="690" width="200" height="50" as="geometry" />
        </mxCell>
        <mxCell id="Fkg0yW7t0FuJe1KcSKEN-70" value="" style="endArrow=classic;html=1;rounded=0;entryX=0.5;entryY=0;entryDx=0;entryDy=0;exitX=0.5;exitY=1;exitDx=0;exitDy=0;fontSize=20;" edge="1" parent="1" source="zgdioNFowjZYfoI_lG1k-38" target="Fkg0yW7t0FuJe1KcSKEN-29">
          <mxGeometry width="50" height="50" relative="1" as="geometry">
            <mxPoint x="1330" y="280" as="sourcePoint" />
            <mxPoint x="1380" y="230" as="targetPoint" />
          </mxGeometry>
        </mxCell>
        <mxCell id="Fkg0yW7t0FuJe1KcSKEN-72" value="" style="endArrow=classic;html=1;rounded=0;entryX=0.5;entryY=0;entryDx=0;entryDy=0;exitX=0.5;exitY=1;exitDx=0;exitDy=0;fontSize=20;" edge="1" parent="1" source="zgdioNFowjZYfoI_lG1k-38" target="Fkg0yW7t0FuJe1KcSKEN-41">
          <mxGeometry width="50" height="50" relative="1" as="geometry">
            <mxPoint x="1580" y="-10" as="sourcePoint" />
            <mxPoint x="1590" y="150" as="targetPoint" />
          </mxGeometry>
        </mxCell>
        <mxCell id="Fkg0yW7t0FuJe1KcSKEN-74" value="" style="endArrow=classic;html=1;rounded=0;entryX=0.5;entryY=0;entryDx=0;entryDy=0;exitX=0.5;exitY=1;exitDx=0;exitDy=0;fontSize=20;" edge="1" parent="1" source="Fkg0yW7t0FuJe1KcSKEN-6" target="Fkg0yW7t0FuJe1KcSKEN-3">
          <mxGeometry width="50" height="50" relative="1" as="geometry">
            <mxPoint x="1240" y="1330" as="sourcePoint" />
            <mxPoint x="1290" y="1280" as="targetPoint" />
          </mxGeometry>
        </mxCell>
        <mxCell id="Fkg0yW7t0FuJe1KcSKEN-84" value="&lt;font style=&quot;font-size: 20px;&quot;&gt;api&lt;/font&gt;" style="edgeLabel;html=1;align=center;verticalAlign=middle;resizable=0;points=[];fontSize=20;" vertex="1" connectable="0" parent="Fkg0yW7t0FuJe1KcSKEN-74">
          <mxGeometry x="-0.0755" y="2" relative="1" as="geometry">
            <mxPoint y="-1" as="offset" />
          </mxGeometry>
        </mxCell>
        <mxCell id="Fkg0yW7t0FuJe1KcSKEN-87" value="" style="endArrow=classic;html=1;rounded=0;exitX=0.5;exitY=1;exitDx=0;exitDy=0;entryX=0.5;entryY=0;entryDx=0;entryDy=0;fontSize=20;" edge="1" parent="1" source="zgdioNFowjZYfoI_lG1k-13" target="Fkg0yW7t0FuJe1KcSKEN-28">
          <mxGeometry width="50" height="50" relative="1" as="geometry">
            <mxPoint x="490" y="-50" as="sourcePoint" />
            <mxPoint x="480" y="110" as="targetPoint" />
          </mxGeometry>
        </mxCell>
        <mxCell id="Fkg0yW7t0FuJe1KcSKEN-90" value="" style="endArrow=classic;html=1;rounded=0;exitX=0.5;exitY=1;exitDx=0;exitDy=0;entryX=0.5;entryY=0;entryDx=0;entryDy=0;fontSize=20;" edge="1" parent="1" source="zgdioNFowjZYfoI_lG1k-13" target="Fkg0yW7t0FuJe1KcSKEN-41">
          <mxGeometry width="50" height="50" relative="1" as="geometry">
            <mxPoint x="520" y="-20" as="sourcePoint" />
            <mxPoint x="510" y="140" as="targetPoint" />
          </mxGeometry>
        </mxCell>
        <mxCell id="Fkg0yW7t0FuJe1KcSKEN-94" value="" style="endArrow=classic;html=1;rounded=0;entryX=0.5;entryY=0;entryDx=0;entryDy=0;exitX=0.5;exitY=1;exitDx=0;exitDy=0;fontSize=20;" edge="1" parent="1" source="Fkg0yW7t0FuJe1KcSKEN-30" target="Fkg0yW7t0FuJe1KcSKEN-41">
          <mxGeometry width="50" height="50" relative="1" as="geometry">
            <mxPoint x="1674" y="-80" as="sourcePoint" />
            <mxPoint x="1674" y="210" as="targetPoint" />
          </mxGeometry>
        </mxCell>
        <mxCell id="Fkg0yW7t0FuJe1KcSKEN-95" value="" style="endArrow=classic;html=1;rounded=0;exitX=0.5;exitY=1;exitDx=0;exitDy=0;entryX=0.5;entryY=0;entryDx=0;entryDy=0;fontSize=20;" edge="1" parent="1" source="zgdioNFowjZYfoI_lG1k-7" target="Fkg0yW7t0FuJe1KcSKEN-41">
          <mxGeometry width="50" height="50" relative="1" as="geometry">
            <mxPoint x="521" y="-80" as="sourcePoint" />
            <mxPoint x="350" y="560" as="targetPoint" />
          </mxGeometry>
        </mxCell>
        <mxCell id="Fkg0yW7t0FuJe1KcSKEN-96" value="" style="endArrow=classic;html=1;rounded=0;exitX=0.5;exitY=1;exitDx=0;exitDy=0;entryX=0.5;entryY=0;entryDx=0;entryDy=0;fontSize=20;" edge="1" parent="1" source="zgdioNFowjZYfoI_lG1k-7" target="Fkg0yW7t0FuJe1KcSKEN-28">
          <mxGeometry width="50" height="50" relative="1" as="geometry">
            <mxPoint x="290" y="-80" as="sourcePoint" />
            <mxPoint x="500" y="700" as="targetPoint" />
          </mxGeometry>
        </mxCell>
        <mxCell id="Fkg0yW7t0FuJe1KcSKEN-97" value="" style="endArrow=classic;html=1;rounded=0;exitX=0.5;exitY=1;exitDx=0;exitDy=0;entryX=0.5;entryY=0;entryDx=0;entryDy=0;fontSize=20;" edge="1" parent="1" source="zgdioNFowjZYfoI_lG1k-7" target="Fkg0yW7t0FuJe1KcSKEN-29">
          <mxGeometry width="50" height="50" relative="1" as="geometry">
            <mxPoint x="290" y="-80" as="sourcePoint" />
            <mxPoint x="1474" y="690" as="targetPoint" />
          </mxGeometry>
        </mxCell>
        <mxCell id="Fkg0yW7t0FuJe1KcSKEN-100" style="edgeStyle=orthogonalEdgeStyle;rounded=0;orthogonalLoop=1;jettySize=auto;html=1;exitX=0.5;exitY=0;exitDx=0;exitDy=0;entryX=0.5;entryY=1;entryDx=0;entryDy=0;fontSize=20;" edge="1" parent="1" source="Fkg0yW7t0FuJe1KcSKEN-99" target="Fkg0yW7t0FuJe1KcSKEN-12">
          <mxGeometry relative="1" as="geometry" />
        </mxCell>
        <mxCell id="Fkg0yW7t0FuJe1KcSKEN-99" value="&lt;font color=&quot;#ffffff&quot; style=&quot;font-size: 20px;&quot;&gt;:feature:....&lt;/font&gt;" style="rounded=1;whiteSpace=wrap;html=1;fillColor=#FF8A65;strokeColor=none;fontSize=20;" vertex="1" parent="1">
          <mxGeometry x="2420" y="-140" width="200" height="50" as="geometry" />
        </mxCell>
        <mxCell id="Fkg0yW7t0FuJe1KcSKEN-101" value="" style="endArrow=classic;html=1;rounded=0;entryX=0.5;entryY=0;entryDx=0;entryDy=0;exitX=0.5;exitY=1;exitDx=0;exitDy=0;fontSize=20;" edge="1" parent="1" source="zgdioNFowjZYfoI_lG1k-39" target="Fkg0yW7t0FuJe1KcSKEN-41">
          <mxGeometry width="50" height="50" relative="1" as="geometry">
            <mxPoint x="2135" y="-80" as="sourcePoint" />
            <mxPoint x="521" y="710" as="targetPoint" />
          </mxGeometry>
        </mxCell>
        <mxCell id="Fkg0yW7t0FuJe1KcSKEN-102" value="" style="endArrow=classic;html=1;rounded=0;exitX=0.5;exitY=1;exitDx=0;exitDy=0;entryX=0.5;entryY=0;entryDx=0;entryDy=0;fontSize=20;" edge="1" parent="1" source="zgdioNFowjZYfoI_lG1k-39" target="Fkg0yW7t0FuJe1KcSKEN-29">
          <mxGeometry width="50" height="50" relative="1" as="geometry">
            <mxPoint x="1904" y="-80" as="sourcePoint" />
            <mxPoint x="1110" y="1032.2222222222222" as="targetPoint" />
          </mxGeometry>
        </mxCell>
        <mxCell id="Fkg0yW7t0FuJe1KcSKEN-104" value="" style="endArrow=classic;html=1;rounded=0;exitX=0.5;exitY=1;exitDx=0;exitDy=0;entryX=0.5;entryY=0;entryDx=0;entryDy=0;fontSize=20;" edge="1" parent="1" source="zgdioNFowjZYfoI_lG1k-33" target="Fkg0yW7t0FuJe1KcSKEN-29">
          <mxGeometry width="50" height="50" relative="1" as="geometry">
            <mxPoint x="290" y="-80" as="sourcePoint" />
            <mxPoint x="1674" y="420" as="targetPoint" />
          </mxGeometry>
        </mxCell>
        <mxCell id="Fkg0yW7t0FuJe1KcSKEN-107" value="" style="endArrow=classic;html=1;rounded=0;entryX=0.5;entryY=0;entryDx=0;entryDy=0;exitX=0.5;exitY=1;exitDx=0;exitDy=0;fontSize=20;" edge="1" parent="1" source="zgdioNFowjZYfoI_lG1k-37" target="Fkg0yW7t0FuJe1KcSKEN-28">
          <mxGeometry width="50" height="50" relative="1" as="geometry">
            <mxPoint x="1674" y="-80" as="sourcePoint" />
            <mxPoint x="1430" y="440" as="targetPoint" />
          </mxGeometry>
        </mxCell>
        <mxCell id="Fkg0yW7t0FuJe1KcSKEN-109" value="" style="endArrow=classic;html=1;rounded=0;entryX=0.5;entryY=0;entryDx=0;entryDy=0;exitX=0.5;exitY=1;exitDx=0;exitDy=0;fontSize=20;" edge="1" parent="1" source="zgdioNFowjZYfoI_lG1k-37" target="Fkg0yW7t0FuJe1KcSKEN-38">
          <mxGeometry width="50" height="50" relative="1" as="geometry">
            <mxPoint x="1443" y="-80" as="sourcePoint" />
            <mxPoint x="1550" y="750" as="targetPoint" />
          </mxGeometry>
        </mxCell>
      </root>
    </mxGraphModel>
  </diagram>
</mxfile>
